name motion_L1L2L3-1m2s.mot
datacolumns 11
datarows 38
range 0.00000000 0.91127017
endheader
                time	         pelvis_tilt	           pelvis_tx	           pelvis_ty	       ankle_angle_r	        knee_angle_r	       hip_flexion_r	       hip_flexion_l	        knee_angle_l	       ankle_ankle_l	    lumbar_extension	
          0.00000000	          0.00000000	          0.00000000	         -0.94274790	          0.00000000	          0.00000000	          0.00000000	          0.00000000	          0.00000000	          0.00000000	          0.00000000	
          0.01127017	          0.00293543	         -0.00011453	         -0.94275387	          0.03708510	          0.02117521	         -0.01429355	         -0.00808915	          0.02424348	          0.00055991	         -0.05831648	
          0.05000000	         -0.00726882	         -0.00185100	         -0.94289273	          0.55479260	          0.21577561	         -0.17052712	         -0.12926564	          0.35951082	         -0.01667414	         -0.94541007	
          0.08872983	         -0.22772615	         -0.00455935	         -0.94328988	          1.19562114	          0.04651669	         -0.18807451	         -0.31276986	          0.76163266	         -0.13972595	         -2.33987677	
          0.10000000	         -0.36495283	         -0.00532187	         -0.94346815	          1.31478800	         -0.17488114	         -0.10990859	         -0.36241279	          0.83044452	         -0.20971143	         -2.73644097	
          0.11127017	         -0.54354900	         -0.00601498	         -0.94367745	          1.37965170	         -0.50028863	          0.02059236	         -0.40571234	          0.86087648	         -0.29867005	         -3.09947856	
          0.15000000	         -1.39888455	         -0.00790370	         -0.94455657	          1.28975064	         -2.21325530	          0.77697530	         -0.48202332	          0.69899430	         -0.71624877	         -4.08155501	
          0.18872983	         -2.42824633	         -0.00922837	         -0.94548437	          1.01390998	         -4.30196850	          1.75457421	         -0.39471470	          0.22160567	         -1.21848658	         -4.68417568	
          0.20000000	         -2.72285621	         -0.00954551	         -0.94572613	          0.95481398	         -4.87787288	          2.03255549	         -0.32893667	          0.04169851	         -1.36388505	         -4.79424360	
          0.21127017	         -3.00446873	         -0.00984025	         -0.94594492	          0.92053279	         -5.41069901	          2.29406464	         -0.24260097	         -0.15155433	         -1.50386924	         -4.87712071	
          0.25000000	         -3.85369337	         -0.01053141	         -0.94653853	          0.95998742	         -6.91114933	          3.05986480	          0.18502435	         -0.91606867	         -1.91228902	         -4.99757178	
          0.28872983	         -4.49156957	         -0.01032978	         -0.94694853	          1.13400043	         -7.94922807	          3.62761632	          0.74664526	         -1.84266272	         -2.13966719	         -4.96620694	
          0.30000000	         -4.63228212	         -0.01002939	         -0.94704492	          1.18942456	         -8.17380545	          3.75709623	          0.92231046	         -2.14396894	         -2.15895624	         -4.94787175	
          0.31127017	         -4.75131671	         -0.00959900	         -0.94713386	          1.24162312	         -8.36581696	          3.87097308	          1.10026270	         -2.45970649	         -2.15380851	         -4.93059360	
          0.35000000	         -4.99669871	         -0.00711367	         -0.94735616	          1.42256373	         -8.75877324	          4.15093584	          1.75836960	         -3.64044585	         -1.97203228	         -4.86446510	
          0.38872983	         -4.99521673	         -0.00307021	         -0.94737755	          1.68158257	         -8.68718589	          4.27620584	          2.56762113	         -4.93346068	         -1.59784741	         -4.74090478	
          0.40000000	         -4.94967174	         -0.00160112	         -0.94733253	          1.78583383	         -8.56950149	          4.28695670	          2.84633372	         -5.32405049	         -1.46442817	         -4.68533764	
          0.41127017	         -4.88416002	         -0.00000088	         -0.94726066	          1.90669291	         -8.40594313	          4.28710081	          3.14808819	         -5.71902615	         -1.32317858	         -4.61865662	
          0.45000000	         -4.50778046	          0.00644311	         -0.94680908	          2.41959386	         -7.52970103	          4.21019428	          4.31559777	         -7.09629618	         -0.77687121	         -4.31937512	
          0.48872983	         -3.89884109	          0.01421583	         -0.94604827	          3.00424610	         -6.25968136	          4.02005425	          5.56591362	         -8.47472463	         -0.12693510	         -3.95226708	
          0.50000000	         -3.67829043	          0.01670184	         -0.94577025	          3.17293918	         -5.83360358	          3.94471228	          5.92287339	         -8.87047105	          0.08340263	         -3.84036792	
          0.51127017	         -3.43870527	          0.01927912	         -0.94546722	          3.33683155	         -5.38744009	          3.86096980	          6.27061991	         -9.26184796	          0.30328183	         -3.72847592	
          0.55000000	         -2.50177447	          0.02862037	         -0.94424304	          3.86492665	         -3.73897757	          3.52983536	          7.40769736	        -10.54419878	          1.09370646	         -3.35515885	
          0.58872983	         -1.46649250	          0.03820501	         -0.94275440	          4.35030776	         -1.99622485	          3.18190639	          8.49741584	        -11.66018934	          1.84337870	         -3.02259951	
          0.60000000	         -1.16133717	          0.04094448	         -0.94227510	          4.48572422	         -1.48719998	          3.08697097	          8.81358664	        -11.94066163	          2.03608823	         -2.93787961	
          0.61127017	         -0.85864479	          0.04363200	         -0.94177666	          4.61877542	         -0.98218309	          2.99737104	          9.13149677	        -12.19718587	          2.21183386	         -2.85988906	
          0.65000000	          0.15265534	          0.05224397	         -0.93997333	          5.03142054	          0.69007195	          2.71878388	         10.23164063	        -12.87055107	          2.64721617	         -2.64814598	
          0.68872983	          1.10198020	          0.05937970	         -0.93816418	          5.30820224	          2.19213611	          2.45241326	         11.32553269	        -13.16508479	          2.73409537	         -2.53348812	
          0.70000000	          1.36335812	          0.06108299	         -0.93766171	          5.35067579	          2.58369648	          2.37096332	         11.63926874	        -13.16905979	          2.67750125	         -2.52022174	
          0.71127017	          1.61704243	          0.06258937	         -0.93717773	          5.37267157	          2.95116947	          2.28588240	         11.94968144	        -13.13330752	          2.57968673	         -2.51650566	
          0.75000000	          2.42400352	          0.06611574	         -0.93568422	          5.30649461	          4.04850714	          1.95815273	         12.96720633	        -12.71409102	          1.94990734	         -2.57428262	
          0.78872983	          3.11698063	          0.06676960	         -0.93451404	          5.06292228	          4.94153421	          1.55996111	         13.85147556	        -11.85739615	          0.92500807	         -2.73476363	
          0.80000000	          3.29467223	          0.06636092	         -0.93424574	          4.96665594	          5.17279833	          1.42790562	         14.07305761	        -11.52998815	          0.56378579	         -2.79951717	
          0.81127017	          3.46093878	          0.06566497	         -0.93401275	          4.86099047	          5.39392804	          1.28750614	         14.27539653	        -11.16869706	          0.17765877	         -2.87194168	
          0.85000000	          3.95153755	          0.06102657	         -0.93346479	          4.41337868	          6.07819492	          0.72461960	         14.81451791	         -9.68307915	         -1.31240108	         -3.17015628	
          0.88872983	          4.33405004	          0.05280010	         -0.93325898	          3.79883108	          6.64401857	         -0.00274558	         15.09375104	         -7.85246444	         -2.99535843	         -3.52285184	
          0.90000000	          4.42825977	          0.04971204	         -0.93325424	          3.58187422	          6.78618686	         -0.25279518	         15.12283131	         -7.26117524	         -3.51008176	         -3.63159705	
          0.91127017	          4.51561347	          0.04630597	         -0.93327083	          3.34608661	          6.91839259	         -0.52218273	         15.12805879	         -6.64569696	         -4.03299022	         -3.74178419	
